<svg xmlns="http://www.w3.org/2000/svg" viewBox="0 0 32 32">
  <path fill="#f7821a" fill-rule="evenodd" d="M0 32h32V0H0Z"/>
  <path fill="#fff" fill-rule="evenodd" d="M9.453 17.039c0-.661-.234-1.237-.703-1.727-.47-.49-1.087-.8-1.855-.927.235-1.428.709-2.691 1.423-3.79.714-1.097 1.604-1.944 2.67-2.541a7.013 7.013 0 0 1 3.485-.895h3.997c1.769 0 3.192.527 4.268 1.582 1.077 1.056 1.615 2.446 1.615 4.173V25h-4.349V13.17c0-.682-.197-1.226-.591-1.63-.394-.406-.922-.608-1.583-.608h-3.357c-.554 0-1.098.213-1.63.64-.534.425-.96.98-1.28 1.662.661.34 1.2.863 1.615 1.566a4.33 4.33 0 0 1 .624 2.239V25H9.453Z"/>
</svg>
